M48
;Layer_Color=6321
;FILE_FORMAT=2:5
INCH,LZ
;TYPE=PLATED
T1F00S00C0.00787
T2F00S00C0.01299
T3F00S00C0.02756
T4F00S00C0.02913
T5F00S00C0.03000
T6F00S00C0.03500
T7F00S00C0.03543
T9F00S00C0.03600
T10F00S00C0.03622
T11F00S00C0.03937
T12F00S00C0.04000
T13F00S00C0.04016
T14F00S00C0.04331
T15F00S00C0.05512
T16F00S00C0.05906
T17F00S00C0.09055
T18F00S00C0.12008
T19F00S00C0.12598
T20F00S00C0.14016
;TYPE=NON_PLATED
T21F00S00C0.03268
T22F00S00C0.04000
T23F00S00C0.04843
T24F00S00C0.05315
T25F00S00C0.06299
%
T01
X006815Y0081772
X006811Y0088189
X0068071Y0090945
X0079046Y0101605
X0095576Y0090945
X0095537Y0088189
X0095591Y0081732
X0113046Y0098606
X0130261Y009859
X013341Y009857
X013656Y009862
X0139709Y0098669
X014281Y009857
X014596Y009862
X0149109Y0098669
X0155561Y0099221
X0155646Y0082306
X0152412Y0082523
X0143063
X0139913Y0082673
X0136846Y0114206
X0128546Y0143205
X012282Y0148005
X0120009Y0151669
X0090246Y0145905
X0076145Y0149206
X0161761Y0098891
X016491Y009887
X016806Y009892
X0171209Y0098969
X0174346Y0099106
X0177509Y0099068
X0180658Y0099118
X0183858Y0099018
X0186958
X0190058Y0098918
X0191946Y0105306
X0205858Y0098718
X0208958Y0098618
X0209105Y0081846
X0212254Y0081797
X0205955Y0081915
X0202906Y0081865
X0199656Y0081995
X0196506Y0081945
X0193457Y0081894
X0180758Y0082523
X0177609Y0082143
X0174459Y0082092
X0171309Y0082523
X016816Y0082191
X016501Y008227
X0161861Y0082523
X0158711Y008224
X0217246Y0109285
X0330046Y0070505
X0333646Y0070406
X0337146
X0342146Y0076906
X0348846Y0071905
X0352046Y0071706
X0368346Y0080905
X0371246Y0081006
X0384061Y0082321
X039351Y0082141
X0396646Y0082306
X0399809Y0082242
X0402959Y0082192
X0406246Y0082105
X0409246Y0082205
X0412408Y0082043
X0415646Y0082306
X0418446Y0082205
X0421857Y0081894
X0425006Y0081866
X0428156Y0081895
X0431306Y0081865
X0443746Y0081205
X0447146
X0450246
X0453346Y0107905
X0455846Y0109505
X0448646Y0110205
X0437558Y0098418
X0434458Y0098518
X0418658Y0098718
X0415558Y0098818
X0412458
X0409258Y0098918
X0406109Y0098869
X0402946Y0098905
X0399809Y0098769
X039666Y009872
X039351Y009867
X0390361Y009869
X0380646Y0100406
X0377709Y0098469
X037456Y009842
X037141Y009837
X0368309Y0098469
X036516Y009842
X036201Y009837
X0358861Y0098391
X0420446Y0105405
X0425646Y0109205
X0428346Y0137906
X0432146Y0137606
X0435846Y0138206
X0440446Y0136106
X0385846Y0155105
X0476432Y007142
X0485746Y0077806
X0495329
X0504587Y0085465
X0504669Y0090583
X0527146Y0094205
X0536746Y0087006
X053187Y0110981
X0529446Y0108905
X0522298Y0110606
X0488146Y0172906
X0483008Y0178043
X0478284Y0178168
X0473546Y0178605
X0473062Y0182822
X0471094Y0180853
X0469125Y0182785
X0476999Y0193552
X0480646Y0192806
X0478046Y0197306
X0481731Y0198921
X0490292Y0196952
X0490362Y0200889
X0474946Y0206405
X0471346
X0478446Y0214705
Y0218605
X0478409Y0222543
X0478346Y0226406
X0480846Y0224505
X0480946Y0220505
X0480977Y0216637
X048094Y02127
X0478146Y0234805
X0480846Y0238806
X0482368Y0242228
X0475646Y0242305
X0469146Y0243305
X0473062Y0253908
X0478046Y0257505
X0496583Y0243168
X0496584Y0238443
X0495446Y0231805
X0499446Y0230805
X0534946Y0231405
X0534846Y0203606
X0531246Y0264206
X051166Y0266791
X0504546Y0286206
X0496046Y0286105
X0492336Y0285215
X0486546Y0288705
X0478146Y0298006
X0473246
Y0302906
Y0307805
X0478146
Y0302906
X0531046Y0304405
X0468546Y0303006
Y0307906
Y0298106
X0462246Y0291506
X0459646Y0291005
X0447846Y0294005
X0443746
X0441546Y0284405
X0441746Y0259506
X0431308Y0259543
X0435661Y025372
X0433692Y0244252
X0430246Y0243806
X0433046Y0237105
X0432766Y0232385
X0439446Y0225306
X0442846Y0225205
X0445946Y0224941
X0451246Y0231906
Y0243205
X0447146Y0245106
X0444746Y0245005
X0442146Y0242806
X0442746Y0240605
X0458146Y0241506
X0462146Y0243106
X0463946Y0258306
Y0261206
X0466346Y0260005
X0423446Y0256306
X0420646Y0302105
X0418146Y0302205
X0418446Y0305306
X0415246Y0304006
X0402246Y0302805
X0395546Y0288705
X0378646Y0280006
X0375446Y0278706
X0371846Y0279505
X0358151Y0283311
X034894Y02793
X0349151Y0291111
X0343446Y0289506
X0348646Y0298805
X0336693Y0309921
X0330151Y03045
X0322593Y0303058
X032427Y0301381
X0318846Y0293706
X0317169Y0292028
X0324843Y028374
X0324446Y0275905
X0331251Y02793
X033954Y02715
X0344651
X0336946Y0262206
X0330746Y0260906
X0334246Y0249805
X0336946Y0251006
X0348951Y02549
X0361651Y0266711
X0369709Y0239342
X0370146Y0222106
X0365825Y0222685
X0367246Y0209906
X0359184Y0204743
X0358646Y0197505
X0378766Y018577
X0382646Y0182205
Y0168905
X0382146Y0157606
X0384046Y0156405
X0380146Y0158806
X0378146Y0160005
X0376246Y0161305
X0397346Y0166605
X0406546Y0175805
X0407246Y0196205
X0417546Y0204105
X0429246Y0204826
X0429346Y0201805
X042984Y02127
X0404146Y0213405
X0378646Y0215806
X0383946Y0225406
X0350802Y0230362
X0340302Y0212449
X0327846Y0209805
X0314514Y0221505
X0313414Y0233437
X0313477Y0237374
X0330646Y0183806
X0426446Y0178605
X0433708Y0177843
X0443535Y0192595
X044944Y01925
X0441566Y0197126
X0460646Y0200106
X0462646Y0198305
X0462746Y0202105
X0461246Y0182905
X0465188Y0182763
X0467157Y0180795
X046322Y018068
X0379746Y0299505
X0370846Y0307105
Y0311305
X0305351Y03102
X0310846Y0288005
X0294046Y0290106
X0286046Y0294106
X0279034Y0298417
X0277357Y0300094
X0275146Y0306105
X0274551Y03102
X0265546Y0298605
X0256994Y0301006
X0255721Y029243
X0261498Y0284058
X0259821Y0282381
X0270546Y0277406
X027387Y027433
X0276593Y0263958
X027827Y0262281
X0287069Y0263683
X0288746Y0262005
X0290428Y0255606
X02928
X0284926Y0255205
X0282554
X0280984Y0243067
Y0238736
X0285315
Y0243067
X0289646
Y0238736
Y0234405
Y0230075
Y0225744
X0285315
X0280984
Y0230075
X0285315
Y0234405
X0280984
X0272296Y0234055
X0273193Y0231453
X0271646Y0228405
X0273246Y0223579
X0273446Y0219605
X0270446Y0216605
X0267486Y0214146
X0266806Y0209245
X0268846Y0205105
X0283546Y0210705
X0281606Y0214146
X0282756Y0218116
X0288661Y021809
X0294567Y0218127
X0293976Y0225744
Y0230075
X0298307
Y0234405
X0293976
Y0238736
Y0243067
X0298307
Y0238736
X0306746Y0237358
X0307746Y0235306
X0306446Y0223579
X0298307Y0225744
X0301846Y0211906
X0310646Y0210506
X0292046Y0211105
X0267685Y0231445
X0267646Y0236374
X0272598Y0237353
X0259315Y0236236
Y0238705
Y0241136
X0260985Y0231445
X0255006Y0232165
X02549Y0225651
X0251946Y0224406
X0216246Y0208105
X0202846Y0218305
X0195646Y0227406
X0192614Y0228437
X0188677Y0228374
X0185146Y0221905
X0182946Y0223406
X01811Y0220964
X0180646Y0211906
X0176146
X0167783Y0212043
X0167746Y0215005
X0167446Y0205405
X0182646
X0190986Y0206006
X0190181Y021187
X0178476Y0228075
Y0232405
Y0236736
X0174146
Y0232405
Y0228075
X0169815
Y0232405
Y0236736
X0161114Y0235906
X0172146Y0244905
X0175146
X0181209Y0249843
X0190138Y0249198
X0192677Y0244874
X0199614
X0202846Y0244406
X0209646Y0240441
X0195646Y0237405
X0203314Y0257437
X0202214Y0261374
X0190138Y0261198
X0177146Y0256405
X0172146
X0167146
X0162146
X0173986Y0268146
X0204346Y0298805
X0211846Y0303405
X0224095Y0308657
X0240494
X0240394Y0302554
X0245791Y0311051
X0244346Y0276606
X0239646
X0234946
Y0271706
X0239646
X0244346
X0285591Y0269094
X0287146Y0278505
X0279146Y0285606
X030484Y0271
X0306151Y0265411
X0306046Y0255105
X030227Y0256581
X0300593Y0258258
X0309546Y0183806
X0265746Y0176406
X0263046
X0260346
X0257646
X0228446Y0180306
X016943Y016969
X0166146Y0171205
X0162746Y0169306
X0159746Y0167428
X0159646Y0163906
X0155946Y0165905
X0156146Y0205105
X0149146Y0208405
X0147646Y0221905
X0150982Y0225575
X0153146Y0237405
X0152146Y0242905
X0149146Y0248406
X0141546Y0246106
X0141446Y0242605
X0139246Y0249205
X0134946Y0262906
X0130246
X0125546
X0120846
X0116146
Y0267705
X0120846
X0125546
X0130246
X0134946
Y0272605
X0130246
X0125546
X0120846
X0116146
Y0258005
X0120846
X0125846Y0241905
X0120614Y0233774
X0109646Y0243205
X0087146Y0240605
X0087496Y0249656
X0086646Y0259606
X0086546Y0261806
X0082646Y0259705
X0095285Y0262345
X0096285Y0278945
X0083646Y0275706
X0072223Y0271183
X0072387Y0266065
X0068564Y0258387
X0068846Y0255805
X0059168Y0255828
X0059364Y0258387
X0059246Y0263506
X0059287Y0266065
X0061646Y0274905
X0058823Y0248783
X0058887Y0243665
X0058946Y0241106
X0058987Y0238546
X0059064Y0235987
X0053831Y0231091
X0072123Y0233428
X0072287Y0238546
X0072105Y0243665
X0072123Y0248783
X0081664Y0235987
X0090246Y0210005
X0090946Y0207206
X0088046Y0197406
X0095646Y0187906
X0107946
X0116285Y0199066
X0120246Y0198805
X0112029Y0204289
X0116646Y0216905
X0128929Y0217622
X0135976Y0223075
X0142546Y0217005
X0134846Y0194006
X0132246Y0195905
X0132546Y0190105
X0129266Y0190726
X0107546Y0167506
X0099786Y0174465
X0078746Y0175805
X0063945Y0169206
X0055646Y0192806
X0052046Y0200406
X0038346Y0305105
X0093146Y0301006
X0112765Y0296986
X0123365
X0123846Y0307006
X0122826Y0309986
X0138646Y0302306
X0150264Y0317569
X0129646Y0324006
X0123403Y0321305
X0107184Y0320668
X0091783Y0320743
Y0328343
X0092483Y0340069
X0083846Y0338605
X0083446Y0361206
X0091846Y0366905
X0092946Y0375805
X0075746Y0387105
X0077796Y0389255
X0069484Y0394367
X0062946Y0387506
X0062805Y0379146
X0068446Y0365705
X0059646Y0353205
X0054696Y0354056
X0042746Y0355006
Y0357606
X0041946Y0419461
X0053146Y0421505
X0053401Y0425705
X0051646Y0430406
X0060046Y0431106
X0055346Y0417406
X0057746Y0409005
X0061374Y0409705
X0086588Y0431963
X0095646Y0442406
Y0452415
Y0455215
X0099646Y0464405
X0115646Y0465906
X0123646Y0442906
X0125146Y0431405
X0126146Y0422905
X0115446
X0115246Y0414806
X0113046Y0406906
X0123946
X0124846Y0401305
X0143654Y0420913
Y0423406
X0143646Y0425705
Y0428006
X0136746Y0448306
X0083012Y0451039
X0080179
X0077379
X0074546
X0071746
X0068913
X0074346Y0462206
Y0465005
Y0467805
X0077546
Y0465005
Y0462206
X0110446Y0358405
X0119567Y0363327
Y0353484
X0128246Y0358405
X0149946Y0358306
X0151246Y0370706
X0149446Y0372605
X0114446Y0339405
X0164128Y0317569
X0179846Y0331906
X0200946Y0332705
X0204246Y0333306
X0210046Y0333405
X0206646Y0338405
X0201946Y0337105
X0197646Y0336705
X0197819Y0348406
X0194646
Y0351532
X0197669Y035154
X0197649Y0354675
X0194646Y0354681
Y0357846
X0194764Y036098
X0194646Y036413
X0197526Y0364106
X0197772Y0367502
X0197646Y0370406
X0191046
X0190788Y0367263
X018562Y0368942
X0182471Y0368406
X0180109Y0369806
X0178146Y0362506
X0175046Y0354405
X0190969Y0353083
X0190972Y0356232
X0190646Y0359405
X019787Y0357906
X0208846Y0357505
X0213427Y0354504
X0216646Y0354681
Y0351406
X0220646Y0350905
X0221524Y0346783
X0219646Y0343905
X0217146Y0343747
X0214646Y0343905
X0211945Y0344205
X0209802Y0346999
X0205646Y0346905
X0201646
X0191146Y0344905
X0190673Y0349933
X0190746Y0375205
X0191046Y0378405
X0191646Y0381606
X0191146Y0386405
X0190646Y0388906
Y039328
X0190669Y0396406
X0196197Y0396854
X0202047Y0395207
X0201346Y0391106
X0202046Y0387728
X0201246Y0382606
X0197636Y0386154
X0210546Y0386105
X0213646Y0389177
Y0392327
X0215046Y0398605
X0218244Y0397807
X0221618Y0390878
X0221323Y0387728
X0220946Y0380705
X0216618Y0379906
X0213446Y0379805
X021372Y0376905
X020937Y037513
X0206646Y0375406
X0204537Y0374406
X0202146Y0374905
X0207046Y0380811
X0209709Y0380669
X0209421Y0365681
X0206577Y0366374
X0213631Y0367391
X021652Y0367406
X0213546Y0364106
X0213571Y0360906
X0216846Y0361005
X0220146Y0361405
X0222346Y0357206
X0223559Y0355276
X0228146Y0349905
X0231146Y0351406
X0233646Y0355405
X0233746Y0357606
X0239046Y0359405
X0230246Y0366106
X0226246Y0371605
X0221571Y037198
X0220421Y037513
X0224146Y0377105
X0229221Y037698
X023196Y0377906
X0234231
X0242646Y0387405
X0246146Y0386405
X0246646Y0389405
X0245146Y0396905
X0250146Y0404705
X0252646Y0402906
X0263646Y0403406
X0267146Y0399905
X0268374Y0395677
X0268146Y0390905
X0275446Y0391005
X0278446Y0390905
X0278646Y0387906
X0281748Y038791
X028183Y0390816
X0284946Y0390905
X0288194Y0390806
X0288055Y0387814
X0291114Y0384677
X0291198Y0381505
X0294246Y0381403
X0294746Y0378805
X0297746Y0378606
X0300746Y0378405
Y0375205
Y0372155
X0303646Y0371905
X0307046Y0372156
Y0375306
X0303946Y0375406
X0307045Y0369006
X030697Y0365781
X0310144Y0365806
X0300646Y0365756
X0300645Y0362606
X0297546
X0297446Y0365806
X0300949Y0368709
X0294346Y0372106
X0290846Y0372406
X0288131Y0372078
X0288101Y0375151
X0291146Y0375256
X0288154Y0378354
X0287949Y0381405
X0284901Y0384661
X0281741Y0381501
X0278626Y0381425
X0278946Y0384206
X0275357Y0384668
X0275478Y0381427
X0272325Y0381585
X0269146Y0380906
X0267819Y0383079
X0260403Y0385863
X0257246Y0392506
X0258146Y0374905
X0259646Y0368905
X0267646Y0364906
X0264713Y0360973
X0268735Y0356316
X0268546Y0350805
X0269046Y0346806
X0267746Y0343205
X0265146Y0343406
Y0348905
X0263146Y0347406
X0260646Y0345905
X0261146Y0341406
X0275446Y0340506
X0278595Y0343706
X0281746Y0343605
X0284946Y0346806
X0291206Y0346845
X0291146Y0340506
X0288146Y0340657
Y0336906
X0284446Y0337206
X0280946Y0336506
X0282482Y0328369
X0284159Y0326692
X027897Y0326981
X0277293Y0328658
X0272246Y0332705
X0274451Y0322011
X0286346Y0322605
X0305146Y0323106
X0304746Y0325306
X0307146Y0324905
X0306446Y0320005
X0306257Y0316837
X0303846Y0318406
X0302246Y0335506
X0297446Y0337359
Y0340605
X0297546Y0353105
X0297549Y0356254
X0300646Y0356306
X0300598Y0353205
X0300646Y0350008
X0303846Y0350006
Y0346905
X0307027Y0346834
X0310047Y0346905
X0310046Y0350057
Y0353105
X0306946Y0350007
Y0356306
X0303621Y0356481
X0294297Y0356356
X0291146Y0359405
X0288098
X0288032Y0356359
X0284898Y0356414
X0281846Y0356405
X0281447Y0353351
X0284491Y0353457
X0288023Y0353133
X0288026Y0350136
X0288154Y0362606
X0290996Y0362405
X0291096Y0365655
X0288046Y0365705
X0287846Y0368806
X0284768Y0368928
X0281646Y0368905
X0278588Y0368917
X0275449Y0368799
X0275464Y0365664
X0275449Y0362713
X0275646Y0359578
X0272248Y0359405
X0272299Y0353264
X0272241Y0350001
X0275449Y0349901
X028153Y0362405
X0281647Y0365762
X0278598Y0365658
X027893Y037228
X0281746Y0372006
X0284895Y037216
X0284898Y0375098
X0278899Y0375505
X0275451Y03751
X0281646Y0378405
X0281746Y0394205
X0278577Y0393974
X0277024Y0401284
X0276846Y0403805
X0276646Y0406405
X0275646Y0410906
X0271646Y0408505
X0273546Y0402005
X0279846Y0402906
X0283846Y0402605
X0286346Y0404605
X0287946Y0406206
X0286902Y0408706
X0284246Y0415605
X0282446Y0418106
X0286801Y0422666
X0289976Y0421976
X0292746Y0421505
X0303146Y0420305
X0306946Y0421105
X0308712Y041684
X0309946Y0415005
X0308646Y0412906
X0312046Y0412806
X0312146Y0417906
X0309046Y0428805
X0312146Y0446906
X0294846Y0437006
X0284346Y0435906
X0281946
X0279546
X0277046
Y0438506
X0279546
X0281946
X0284346
Y0441106
X0281946
X0279546
X0277046
X0265646
X0262646
X0264146Y0433906
Y0431706
X0266646
Y0433906
X0267646Y0427705
X0265646Y0416706
X0269646Y0416405
X0254946Y0418505
X0257246Y0422606
X0250646Y0421105
X0246346Y0421406
X0240446Y0425605
X0240346Y0430805
X0241746Y0434305
X0243546Y0448406
X0247946Y0450406
X0255346Y0449205
X0257646Y0465406
X0247646
X0237646
X0227646
X0210646Y0457406
X0202646Y0447405
X0192646
X0182646
X0183146Y0464906
Y0467906
X0164146Y0458906
X0166646Y0456405
X0179746Y0422205
X0178246Y0413705
X0175546Y0414405
X0185646Y0397905
X0168146Y0379805
X0156946Y0378105
X0190946Y0431505
X0201046Y0426606
X0202546Y0422006
X0217146Y0426205
X0215146Y0436506
X0287046Y0430105
X0298646Y0413705
X0299546Y0405506
X0296412Y0405936
X0296446Y0401006
X0293646Y0402505
X0292046Y0400906
X0291246Y0394106
X0294346Y0394205
X0297546Y0394106
X0297446Y0397205
X0303746
X0303846Y0394106
X0307046
X0306946Y0391005
Y0387806
X0310094Y0387696
X0309822Y0381231
X0303746Y0390905
X0300646Y0387806
X0294346Y0384606
X0288046Y0394101
Y0397205
X0300524Y0401484
X0308246Y0401805
X0311246Y0401905
X0310048Y0397205
X0305946Y0409506
X0295146Y0466905
X0248646Y0374406
X0234246Y0345406
X0230896Y0344406
X0230146Y0341406
X0219646Y0333405
X0219146Y0329405
X0201346Y0324805
X0253646Y0320905
X0256246Y0319305
X0260146Y0319406
X0258446Y0322905
X0310546Y0334506
X0317346Y0335705
X0316446Y0340507
Y0343706
X0316416Y0346774
X0313246Y0346806
Y0343707
Y0350006
X0316446Y0349956
X0319546Y0346856
X0322646Y0346806
X0322746Y0343706
X0322646Y0340705
X0319627Y0340582
X0319546Y0343706
X0325846Y0343605
X0325746Y0340656
X0328746Y0340806
X0328895Y0343806
X0325846Y0346806
X0322846Y0350161
X0322693Y0356414
X0322646Y0359405
X0322666Y0362526
X0319543Y0362606
X0319393Y0365605
X0319443Y0369005
X0319546Y0372106
Y0375306
Y0378357
X0319584Y0381438
X0316677Y0381327
X0316446Y0378306
X0316346Y0375205
X0316243Y0372205
X0316291Y0368909
X0313244Y0368905
Y0365863
X0313346Y0362505
X0312746Y0360005
X0313246Y0356306
X0313419Y0353226
X0319546Y0359454
X0325839Y035641
X0328694Y0359052
X0328891Y0362506
X0332043Y0362705
X0334746Y0363005
X0333746Y0365506
X0332346Y0368605
X0329192Y0368706
X0325846Y0368905
Y0365753
X0325693Y0371905
X0322746Y0372006
Y0375212
X0322646Y0378307
X0325694Y0378205
X0325846Y0375106
X0328846Y0375351
X0325846Y0381507
X0325842Y0384653
X0322846Y0384806
X0322691Y0387806
X032264Y0391005
X0322646Y0394055
X031954Y0394106
X0319546Y0390955
Y0384705
X0316396Y0387806
X0313246Y0387805
Y0390954
X0313047Y0393905
X0316146Y0393854
X0316246Y0397104
X0313098Y0397106
X0316446Y0402206
X0317846Y0404005
X0314746Y0404106
X0321118Y0403878
X0321946Y0406806
X0325946Y0403805
X0324268Y0401284
X0319484Y0401006
X031509Y041375
X0316646Y0416305
X0322746Y0420506
X0326146Y0421605
X0326046Y0425005
X0324246Y0427806
X0331146Y0429505
X0335246Y0434406
X0351846Y0431505
X0356046Y0431306
X0365746Y0432205
X0365769Y0420082
X0362846Y0422506
X0366022Y0410929
X0365446Y0403905
X0359546Y0404005
X0359446Y0408906
X0349296Y0411155
X0347046Y0410605
X0341646Y0407706
Y0405335
X0346746Y0400906
X034894Y0402954
X0349771Y039218
X0342146Y0393706
X0333346Y0391705
X0328846Y0391099
X0325917Y0387835
X0322746Y0381451
X0313146Y0381505
X0313046Y0378156
X0335246Y0383906
X0337846Y0384206
X0348946Y0382705
X0349546Y0374476
Y0372105
X0349996Y0368555
X0345946Y0369106
X0340046Y0371806
X0337098Y0370858
X0335421Y0369181
X0334646Y0354505
X0334546Y0352306
X0332546Y0353405
X0336998Y0351653
X0339743Y0350003
X034142Y035168
X0342446Y0346006
X0340246Y0345806
X0344123Y0344328
X0349846Y0348905
X0352746Y0349805
X035687Y0349781
X0359946Y0361305
X0359974Y0366834
X0366198Y0368858
X0366244Y0358907
X0371046Y0353205
X0374846Y0354805
X0379666Y0340626
X0377646Y0331006
X0370846Y0326805
Y0320005
Y0315605
X0348746Y0317905
X0345046Y0328006
X0337746Y0336206
X033061Y0336557
X0328146Y0335506
Y0333206
X0325146Y0326406
X0313746Y0329306
X0345946Y0359506
X0349246Y0359705
X0355146Y0379205
X0362046Y0381606
X0365446Y0381906
X0363246Y0389806
X0359546Y0390206
X0349471Y0420031
X0346046Y0418006
X0330046
X0326746Y0418505
X0322646Y0446906
X0317646Y0455905
X0348246Y0446005
X0351646Y0441405
X0356146Y0448306
X0399246Y0452306
X0417646Y0456806
X0419446Y0459406
X0419146Y0446906
Y0444535
X0417729Y0436889
X0417546Y0429216
Y0426845
X0417846Y0423406
X0418046Y0417406
Y0415034
X0417546Y0411506
Y0409135
X0419602Y0407361
X0419646Y0401606
X0418328Y0399487
X0421046Y0393905
X0428595Y0401456
X042859Y0407361
X0429684Y0413267
X0430246Y0417406
X0430646Y0420939
Y0423311
X0430446Y0429605
X0430946Y043275
Y0435122
Y0438656
Y0441028
X0432146Y0443606
X0431746Y0447606
X0430646Y0450335
Y0452706
X0446846Y0458006
X0453146Y0449905
X0452857Y0442795
X0452862Y0436889
X0452824Y0430983
X0452618Y0425078
X0452713Y0419172
X0452707Y0413267
X0452802Y0407361
X0452896Y0401456
X0451846Y0393706
X0468346Y0388405
X0468344Y0417204
X0459305Y0442946
X0410746Y0424305
Y0420506
X0414284Y0376668
X0411466Y0359085
X0408584Y0361644
X0405848Y0364203
X0403446Y0366806
X0396146Y0358705
X0396246Y0341106
X0392746Y0337305
X0389546Y0338005
X0412421Y0343731
X0422425Y0356526
X0445946Y0343506
X0451383Y0367143
X0451446Y0371806
X0489146Y0377006
X0520905Y0370806
X0527891Y037586
X0525846Y0325006
X05122Y032066
X05006Y032086
X0478746Y0325406
X0470146Y0415235
X0479846Y0466006
X0496346Y0458706
X0499646Y0459905
X0503446Y0460806
X0511686Y0459945
X0514946Y0461406
X0481046Y0469406
X0476546Y0498605
X0476346Y0519906
X0480846Y0517705
X0481746Y0527005
X0475746Y0529106
X0477946Y0543106
X0475446Y0606005
X0470646Y0610106
X0515446Y0620106
X0525246Y0607105
X0533346Y0606906
X0465346Y0610306
X0460246Y0610006
X0454846Y0609805
X0446446Y0607905
X0452346Y0597905
X0452246Y0594306
X0449446Y0624905
X0443346Y0624305
X0440846Y0622706
X0466814Y0618574
X0465195Y0568557
X0461046Y0555105
X0459246Y0532905
X0417546Y0535706
X0415146Y0533605
X0362246Y0533635
Y0536006
X0359646Y0522506
Y0520135
X0328046Y0521206
X0325674
X0323646Y0532905
Y0535276
X0322606Y0560306
X0324978
X0329946Y0564405
X0334417Y0562605
X0336946
X0340746Y0562206
X0336789Y0578205
X0334417
X0335071Y0581531
X0336748Y0583208
X034937Y057873
X0362346Y0578606
X0364546Y0580705
X0365946Y0583405
X0364246Y0586105
X0369446Y0597006
X0370189Y0600149
X0372551Y0602165
X0379638Y0602059
X0386724Y0602165
X0389087Y0602046
X0391449Y0602102
X0393811Y0602059
X0396173Y0602033
X0398535Y0602095
X0400898Y0602165
X040326Y060222
X0405622Y0602182
X0407984Y0602059
X0410646Y0597006
X0416846Y0602206
X0418246Y0607905
X03975Y0584451
X0384362Y0594122
X0382Y0592051
X0377246Y0594306
X0374846Y0592105
X0355046Y0601606
X0351291Y0601559
X0347746Y0601105
X0344205Y0601665
X0341843Y0601609
X0337118Y0601559
X0330031Y0601665
X0322945Y0601559
X0315858Y0601665
X0313496Y0599956
X0317946Y0578006
X0313167Y0560306
X0314646Y0514906
X0320046Y0499006
X0322846Y0499405
X0322446Y0495806
X0347946
X0333746Y0472806
X0460646Y0488705
X0364146Y0621906
X0362446Y0624405
X0305446Y0618006
X0302546Y0614106
X0301685Y0601665
X0304047Y0600007
X0306409Y0600069
X0308772Y0601559
X0311134Y0600017
X0308746Y0585506
Y0583135
X0306746Y0560405
X0310795Y0560306
X0298846Y0558806
X0296146Y0560106
X0294265Y0562987
X0290328Y0562824
X0283546Y0561306
Y0558935
X0282453Y0568213
X0258646Y0563406
X0254709Y0563443
X0249989Y0560206
X0247617
X0242898Y0563457
X0231087Y0563446
X0226367Y0561705
X0223995
X0219146Y0563605
X0215338Y0577005
X0211402Y0576961
X0207465Y0576824
X0203527Y0576787
X020248Y0595984
X0202472Y0602079
X0209559Y0601992
X0223732Y0601492
X0230819Y0601732
X0229971Y059438
X0231648Y0592703
X0221346Y0593876
Y0591505
X0223995Y0578706
X0226367
X0235806
X0238178
X0242965Y0576225
X0244642Y0577902
X0244992Y0601559
X0238746Y0598206
X0261523Y0598906
X0263895
X0266252Y0614612
X0261746Y0616505
X0273446Y0613105
X0282945Y0615406
X0285316
X0287512Y0601665
X0285154Y0598406
X0282783
X0280425Y0601559
X0294598
X0312246Y0541606
Y0539235
X0311346Y0516706
X0303746
X0301546Y0514906
X0306646Y0469906
X0251646Y0474405
Y0476905
X0253246Y0482506
Y0485206
Y0487906
X0249546
Y0485206
Y0482506
X0251646Y0492906
X0255646Y0499405
Y0502906
Y0506405
X0266646Y0497905
X0236146Y0504405
X0231546Y0501905
X0205646Y0481944
X0201646Y0481906
X0176646Y0478406
X0172146
X0167646
X0160646Y0476405
X0157146Y0479405
Y0483306
X0160646Y0486905
X0183146Y0497905
X0195653Y0590113
X0188299Y0601559
X0181213Y0601472
X0171764Y0601524
X0167346Y0594005
X0171764Y0614287
X0181213Y0614339
X0188299Y0614252
X0190646Y0615406
X0195386Y0615146
X0200146Y0615406
X0197748Y0618303
X0192146Y0619906
X0207146Y0615906
X0145646Y0616905
X0126646Y0613905
Y0610405
X0116646Y0618905
X0112146Y0579405
X0094146
X0099146Y0565906
Y0558906
X0100646Y0554405
X0095646Y0550406
Y0546406
Y0537405
X0102646Y0528105
X0099013Y0518539
X0102646Y0513406
X0099013Y0508539
X0093346Y0504206
Y0501272
X0096036Y0498296
Y0488015
X0093155Y0476897
X0086646Y0478905
X0077546Y0470606
X0074346
X0101646Y0470405
X0103646Y0479806
X0116546Y0476305
X0123106Y0488905
X0141846Y0491305
X0140546Y0520506
X01195Y052576
X0123106Y0536905
X0115646Y0560906
X0140526Y0566785
X0076146Y0560906
X0076489Y0546406
X0073556
X0070623
X006769
X0079422
X0086546Y0528706
X0077646Y0513406
X0076346Y0498039
X0079279
X0073413
X0070479
X0067546
X0115646Y0512206
X0074146Y0582905
X0071896Y0580655
X0069646Y0578406
X0052246Y0577705
X0042846
X0087146Y0642406
X0094146Y0649905
X0097146Y0669406
X0116646Y0662906
X012413Y064839
X0121646Y0643905
X0126646Y0634905
X0126046Y0630905
X0146646Y0637906
X0146546Y0671906
X0149446
X0172945Y0645205
Y0631106
X0182394Y0631157
X0179946Y0628105
X0190646Y0627906
X018948Y0631071
X0192646Y0630905
Y0625406
X0205946Y0630105
X0211346Y0630406
X0217827Y0632138
X0224913Y0632244
X0232Y0632138
X0246173
X0239087Y0643947
X0236729Y0646206
X0234358
X0229643Y0649006
X0227271
X0222556Y0646206
X0220184
X0215469Y0649205
X0213098
X0196546Y0646005
X0191929Y0644882
X0162546Y0632406
X0241444Y0648906
X0243816
X0253246Y0644005
X0260346Y0644105
X027452Y0644252
X0281606Y0644146
X0288693Y0644252
X0287817Y0649405
X0285445
X0283348Y0652703
X0281671Y065438
X0291945Y0651405
X0294317
X0295779Y0644146
X0302866Y0644252
X0309953Y0644146
X0309953Y0632244
X0302866Y0632138
X0295779Y0632244
X0267433
X0272846Y0662906
X0263846Y0672706
Y0677705
Y0682705
X0263566Y0687706
X0263946Y0692705
X0279346
X0279446Y0687806
X0282401Y0703061
X0286338Y0702998
X0290276Y0704335
X0302087Y0704065
X0274528Y0701687
X0266653Y0708213
X0278465Y0716587
X0266653Y0728813
X0236846Y0701205
X0233386Y0700906
X0221575Y0701063
X0215551
X0209803Y0700866
X0203701
X0227646Y0683906
X0229646Y0681906
X0234646Y0682406
X0241146Y0685405
X0331846Y0678105
X0332646Y0675306
X0328866Y0675026
X0329146Y0666706
X0332046Y0661406
X0335946Y0661905
X0335446Y0646206
X0338299Y0644146
X0345386Y0644252
Y0632138
X0343024Y0631984
X0340661Y0631921
X0338299Y0632244
X0331213Y0632138
X0324126Y0632244
X0317039Y0632138
Y0644252
X0324126Y0644146
X0331213Y0644252
X0333746Y0625505
X0350346Y0631706
X0352946Y0631206
X0362484Y0636168
X0368946Y0632406
X0368646Y0627605
X0373946Y0627761
X0376095Y0631954
X0378457Y0631994
X0383181Y0631841
X0385543Y0631808
X039263Y0631721
X0397354Y0631714
X0404446Y0630105
X0406803Y0630748
X0411527Y0630087
X041389Y0632561
X0416252Y0643752
X0419346Y0643606
X0409165Y0643646
X0406046Y0643806
X0402079Y0643752
X0399546Y0644705
X0394992Y0643646
X0387906Y0643752
X0380819Y0643646
X0373732Y0643752
X0367143Y0686303
X0390448
X0405846Y0697905
X0416946Y0702406
X0420546Y0705805
X0428046Y0711805
X0426752Y0723912
X0430146Y0723906
X0435236Y0723915
X0443898Y0724354
X0448146Y0722106
X0452539Y0722099
X0455646Y0718806
X0441346Y0715705
X0438846Y0706806
X0442446Y0689305
X0444946Y0691606
X0450846Y0692005
X0449946Y0681906
X0462677Y0681637
X0466614Y0681574
X0464646Y0668505
X0468583Y0668243
X0460709Y0668043
X0464646Y0662906
X0457978Y0657238
X0462646Y0651205
X0462877Y0648474
X0468146Y0649506
X0464846Y0636805
Y0632506
X0461046Y0632406
X0460909Y0637569
X0438046Y0635706
Y063317
Y0626506
X0436646Y0625105
X0434046Y0646505
X0442546Y0655006
X0444646Y0656005
X0445301Y0659661
X0445546Y0664061
X0432446Y0689405
X0425946Y0691106
X0416546Y0689906
X0418446Y0684506
X0415009Y0719642
X0412736Y0723596
X0411597Y0716357
X0422421Y072403
X0396584Y0727543
X0378898Y0725554
X0370236Y0724515
X0370646Y0720405
X0365646Y0723406
X0363146Y0718905
X0357421Y0723181
X0347736Y0724096
X0329646Y0729106
Y0708106
X0325709Y0703968
X0313898Y0715957
X0361646Y0708906
X0366646Y0709406
X0374646Y0705905
X0383946Y0708106
Y0717906
X0353946Y0698705
X0339546Y0681005
X0337058Y0680205
X0333946Y0679806
X0470778Y0657238
X0473246Y0653305
X0468783Y0637442
Y0632543
X0515346Y0633605
X0520246Y0639305
X05251Y063206
X0530946Y0679705
X0536846Y0679405
X0517546Y0683806
X0499746Y0694705
X0489446Y0695006
X0487646Y0690105
X0478746Y0700406
X0481346Y0723206
T02
X0127784Y0329543
X0132508
Y0334268
X0127784
T03
X0051902Y0590162
X0061646Y0599905
T04
X0161046Y0128006
X0166046Y0124068
X0171046
X0176046Y0128006
X0181046Y0124068
X0186046
X0191046Y0128006
X0389546
X0394546Y0124068
X0399546
X0404546Y0128006
X0409546Y0124068
X0414546
X0419546Y0128006
T05
X0410146Y0152805
X0420146
X0430146
X0440146
X0450146
X0460146
X0470146
X0480146
X0490146
X0500146
Y0162805
X0490146
X0480146
X0470146
X0513446Y0168705
X0523446
Y0178706
X0513446
Y0188706
X0523446
Y0198705
X0513446
Y0208705
X0523446
Y0218706
X0513446
Y0228706
X0523446
Y0238705
X0513446
Y0248706
X0523446
Y0258705
X0513446
X0501746Y0269806
X0491746
X0481746
X0471746
Y0279805
X0481746
X0491746
X0501746
X0461746
X0451746
X0441746
X0431746
X0421746
X0411746
Y0269806
X0421746
X0431746
X0441746
X0451746
X0461746
X0399246Y0260906
Y0250905
Y0240905
Y0230906
Y0220905
Y0210906
Y0200905
Y0190905
Y0180905
Y0170905
X0389246
Y0180905
Y0190905
Y0200905
Y0210906
Y0220905
Y0230906
Y0240905
Y0250905
Y0260906
X0410146Y0162805
X0420146
X0430146
X0440146
X0450146
X0460146
T06
X0360546Y0658106
X0370546
X0380546
X0390546
X0400546
X0410546
X0420546
X0430546
Y0668106
X0420546
X0410546
X0400546
X0390546
X0380546
X0370546
X0360546
T07
X0161646Y0298905
X0171646
X0126546Y0286606
X0116546
X0122146Y0209705
X0132146
X0068746Y0217806
X0058746
X0091546Y0164105
X0101546
X0153546Y0422806
X0163546
X0492846Y0384805
X0502846
X0512846
X0330646Y0482905
X0320646
X0440746Y0597106
Y0607105
X0214146Y0490906
Y0480905
X0147646
Y0470905
X0136646
Y0480905
X0125646Y0470905
X0115646
Y0517906
X0125646
Y0566905
X0115646
X0144846Y0578706
Y0588705
X0169646Y0649905
Y0659905
X0180646
Y0649905
X0191646
Y0659905
X0318746Y0685106
X0325817Y0692177
T09
X0276246Y0120505
Y0130506
X0286246
X0296246
X0306246
Y0120505
X0295746
X0286246
X0342446Y0175106
Y0185106
X0352446
X0362446
X0372446
Y0175106
X0361946
X0352446
X0482846Y0384805
T10
X0128666Y0689136
X0138509
X0146383
X0156225
T11
X0051646Y0106806
Y0116806
Y0126805
X0055529Y0282015
X0073246
Y0307606
X0055529
X0055429Y0321515
X0073146
Y0347106
X0055429
T12
X0496603Y0307878
X0506446
X0516288
Y0364965
X0496603
X0528346Y0388005
Y0398006
Y0408006
Y0418006
Y0428006
Y0438005
Y0458806
Y0468806
Y0478805
Y0488805
Y0498806
Y0508806
X0528546Y0530305
Y0540306
Y0550306
Y0560306
Y0570305
Y0580305
X0500046Y0590005
Y0600005
Y0610006
Y0620006
X0490046
Y0610006
Y0600005
Y0590005
Y0543806
Y0533806
X0500046
Y0543806
Y0523806
X0490046
Y0513805
X0500046
Y0503805
X0490046
Y0493806
X0500046
Y0483806
X0490046
Y0630006
Y0640005
X0500046
Y0650005
X0490046
X0500046Y0630006
T13
X0462446Y0344305
Y0354306
Y0364305
Y0374306
Y0384306
T14
X0051646Y0136805
Y0146806
Y0156806
X048833Y0404832
X049833
X050833
Y0415932
X049833
X048833
Y0427032
X049833
X050833
Y0438132
X049833
X048833
Y0449231
X049833
X050833
T15
X0239146Y0219406
T16
X0229303Y0209563
X0248988
Y0229248
X0229106Y0229445
T17
X0116579Y0699805
X0168312
T18
X0064948Y0690522
X008424Y0704364
T19
X0049646Y0072405
X0531646
X0049646Y0721406
X0532146Y0720905
T20
X0084179Y0680743
T21
X0120522Y0083505
X0349022
T22
X0428195Y0389694
Y046243
T23
X0231546Y0083505
X0460046
T24
X0150534Y0126037
X0201557
X0379034
X0430057
T25
X0423142Y0623005
X016015
M30
