G04 Layer_Color=16770453*
%FSLAX25Y25*%
%MOIN*%
G70*
G01*
G75*
%ADD11R,0.04724X0.04724*%
%ADD15R,0.03347X0.03543*%
%ADD16R,0.03543X0.04134*%
%ADD17R,0.03740X0.05315*%
%ADD22R,0.05315X0.03740*%
G04:AMPARAMS|DCode=25|XSize=53.15mil|YSize=43.31mil|CornerRadius=0mil|HoleSize=0mil|Usage=FLASHONLY|Rotation=315.000|XOffset=0mil|YOffset=0mil|HoleType=Round|Shape=Rectangle|*
%AMROTATEDRECTD25*
4,1,4,-0.03410,0.00348,-0.00348,0.03410,0.03410,-0.00348,0.00348,-0.03410,-0.03410,0.00348,0.0*
%
%ADD25ROTATEDRECTD25*%

%ADD28R,0.01772X0.01772*%
%ADD34R,0.03543X0.03347*%
%ADD39R,0.05118X0.02756*%
%ADD40R,0.02047X0.02205*%
%ADD41R,0.02205X0.02047*%
%ADD42R,0.01969X0.01575*%
%ADD43R,0.03347X0.02953*%
%ADD44R,0.01969X0.01969*%
%ADD51R,0.04331X0.02559*%
%ADD64R,0.04134X0.03543*%
%ADD68R,0.06693X0.04331*%
%ADD95R,0.01969X0.01969*%
%ADD96R,0.02953X0.03347*%
%ADD103R,0.04331X0.06693*%
%ADD109P,0.05568X4X270.0*%
G04:AMPARAMS|DCode=110|XSize=39.37mil|YSize=86.61mil|CornerRadius=0mil|HoleSize=0mil|Usage=FLASHONLY|Rotation=225.000|XOffset=0mil|YOffset=0mil|HoleType=Round|Shape=Rectangle|*
%AMROTATEDRECTD110*
4,1,4,-0.01670,0.04454,0.04454,-0.01670,0.01670,-0.04454,-0.04454,0.01670,-0.01670,0.04454,0.0*
%
%ADD110ROTATEDRECTD110*%

%ADD111R,0.03937X0.03937*%
%ADD112R,0.08661X0.03937*%
%ADD116R,0.01575X0.01969*%
%ADD119R,0.01772X0.01772*%
%ADD120R,0.03543X0.02756*%
G04:AMPARAMS|DCode=228|XSize=20.47mil|YSize=22.05mil|CornerRadius=0mil|HoleSize=0mil|Usage=FLASHONLY|Rotation=225.000|XOffset=0mil|YOffset=0mil|HoleType=Round|Shape=Rectangle|*
%AMROTATEDRECTD228*
4,1,4,-0.00056,0.01503,0.01503,-0.00056,0.00056,-0.01503,-0.01503,0.00056,-0.00056,0.01503,0.0*
%
%ADD228ROTATEDRECTD228*%

G04:AMPARAMS|DCode=229|XSize=15.75mil|YSize=19.69mil|CornerRadius=0mil|HoleSize=0mil|Usage=FLASHONLY|Rotation=135.000|XOffset=0mil|YOffset=0mil|HoleType=Round|Shape=Rectangle|*
%AMROTATEDRECTD229*
4,1,4,0.01253,0.00139,-0.00139,-0.01253,-0.01253,-0.00139,0.00139,0.01253,0.01253,0.00139,0.0*
%
%ADD229ROTATEDRECTD229*%

G04:AMPARAMS|DCode=230|XSize=20.47mil|YSize=22.05mil|CornerRadius=0mil|HoleSize=0mil|Usage=FLASHONLY|Rotation=20.000|XOffset=0mil|YOffset=0mil|HoleType=Round|Shape=Rectangle|*
%AMROTATEDRECTD230*
4,1,4,-0.00585,-0.01386,-0.01339,0.00686,0.00585,0.01386,0.01339,-0.00686,-0.00585,-0.01386,0.0*
%
%ADD230ROTATEDRECTD230*%

G04:AMPARAMS|DCode=231|XSize=20.47mil|YSize=22.05mil|CornerRadius=0mil|HoleSize=0mil|Usage=FLASHONLY|Rotation=135.000|XOffset=0mil|YOffset=0mil|HoleType=Round|Shape=Rectangle|*
%AMROTATEDRECTD231*
4,1,4,0.01503,0.00056,-0.00056,-0.01503,-0.01503,-0.00056,0.00056,0.01503,0.01503,0.00056,0.0*
%
%ADD231ROTATEDRECTD231*%

G04:AMPARAMS|DCode=232|XSize=20.47mil|YSize=22.05mil|CornerRadius=0mil|HoleSize=0mil|Usage=FLASHONLY|Rotation=60.000|XOffset=0mil|YOffset=0mil|HoleType=Round|Shape=Rectangle|*
%AMROTATEDRECTD232*
4,1,4,0.00443,-0.01438,-0.01467,-0.00335,-0.00443,0.01438,0.01467,0.00335,0.00443,-0.01438,0.0*
%
%ADD232ROTATEDRECTD232*%

%ADD233R,0.04134X0.05512*%
%ADD234R,0.05906X0.12600*%
%ADD235R,0.05906X0.12598*%
%ADD236R,0.05906X0.12598*%
%ADD237R,0.02000X0.01100*%
%ADD238R,0.01100X0.02000*%
%ADD239R,0.05701X0.01201*%
%ADD240R,0.03543X0.06102*%
%ADD241O,0.05906X0.00984*%
%ADD242R,0.02559X0.02362*%
%ADD243R,0.03937X0.03543*%
D11*
X407646Y612581D02*
D03*
Y622030D02*
D03*
D15*
X188508Y232405D02*
D03*
X183783D02*
D03*
X72008Y424606D02*
D03*
X67283D02*
D03*
D16*
X249191Y219506D02*
D03*
X254900D02*
D03*
X305800Y606505D02*
D03*
X300091D02*
D03*
X301000Y597305D02*
D03*
X295291D02*
D03*
D17*
X409795Y697905D02*
D03*
X415897D02*
D03*
X315997Y618006D02*
D03*
X309894D02*
D03*
X495997Y553805D02*
D03*
X489894D02*
D03*
D22*
X181646Y588654D02*
D03*
Y594757D02*
D03*
X469146Y239457D02*
D03*
Y233354D02*
D03*
X462146Y239457D02*
D03*
Y233354D02*
D03*
X415146Y622357D02*
D03*
Y616254D02*
D03*
X348646Y614957D02*
D03*
Y608854D02*
D03*
X335446Y656057D02*
D03*
Y649954D02*
D03*
X328246Y656057D02*
D03*
Y649954D02*
D03*
D25*
X293297Y342657D02*
D03*
X297194Y346554D02*
D03*
D28*
X211646Y372480D02*
D03*
Y369331D02*
D03*
X208146Y372480D02*
D03*
Y369331D02*
D03*
D34*
X411446Y607168D02*
D03*
Y602443D02*
D03*
X368146Y603343D02*
D03*
Y608068D02*
D03*
X357646Y631443D02*
D03*
Y636168D02*
D03*
X442446Y711568D02*
D03*
Y706843D02*
D03*
X153646Y233268D02*
D03*
Y228543D02*
D03*
X429046Y237168D02*
D03*
Y232443D02*
D03*
D39*
X146146Y225665D02*
D03*
Y233146D02*
D03*
X264146Y228146D02*
D03*
Y220665D02*
D03*
X277146Y206665D02*
D03*
Y214146D02*
D03*
X287946Y206565D02*
D03*
Y214046D02*
D03*
D40*
X312646Y337910D02*
D03*
Y340902D02*
D03*
X331846Y342102D02*
D03*
Y339109D02*
D03*
X302246Y338409D02*
D03*
Y341402D02*
D03*
X287946Y344510D02*
D03*
Y347502D02*
D03*
X310046Y391070D02*
D03*
Y394141D02*
D03*
X291746Y390402D02*
D03*
Y387409D02*
D03*
X309446Y377402D02*
D03*
Y374409D02*
D03*
X309246Y368210D02*
D03*
Y371202D02*
D03*
X294046Y361070D02*
D03*
Y364141D02*
D03*
X322446Y366210D02*
D03*
Y369202D02*
D03*
X316546Y366541D02*
D03*
Y363470D02*
D03*
X294646Y390502D02*
D03*
Y387509D02*
D03*
X296646Y375541D02*
D03*
Y372470D02*
D03*
X293446Y353341D02*
D03*
Y350270D02*
D03*
X309246Y340941D02*
D03*
Y337870D02*
D03*
X315746Y357770D02*
D03*
Y360841D02*
D03*
D41*
X289796Y399605D02*
D03*
X286804D02*
D03*
X332442Y384005D02*
D03*
X329450D02*
D03*
X317042Y384506D02*
D03*
X314050D02*
D03*
X304310Y385306D02*
D03*
X307381D02*
D03*
X303750Y354006D02*
D03*
X306742D02*
D03*
X305450Y359506D02*
D03*
X308442D02*
D03*
X305450Y362705D02*
D03*
X308442D02*
D03*
X303210Y379205D02*
D03*
X306281D02*
D03*
X306342Y382405D02*
D03*
X303350D02*
D03*
X328350Y366005D02*
D03*
X331342D02*
D03*
X302042Y359506D02*
D03*
X299050D02*
D03*
X295510Y369106D02*
D03*
X298581D02*
D03*
X272581Y366806D02*
D03*
X269510D02*
D03*
X272642Y362906D02*
D03*
X269650D02*
D03*
X275642Y398205D02*
D03*
X272650D02*
D03*
D42*
X290346Y353680D02*
D03*
Y350531D02*
D03*
X312746Y371931D02*
D03*
Y375080D02*
D03*
X197646Y334980D02*
D03*
Y331831D02*
D03*
X206646Y344480D02*
D03*
Y341331D02*
D03*
X207646Y363380D02*
D03*
Y360231D02*
D03*
D43*
X159146Y233366D02*
D03*
Y228445D02*
D03*
X270546Y214166D02*
D03*
Y209245D02*
D03*
X294846Y213366D02*
D03*
Y208445D02*
D03*
D44*
X276146Y235374D02*
D03*
Y231437D02*
D03*
D51*
X74670Y436646D02*
D03*
Y432905D02*
D03*
Y429165D02*
D03*
X65221D02*
D03*
Y432905D02*
D03*
Y436646D02*
D03*
D64*
X386146Y590160D02*
D03*
Y584451D02*
D03*
X393146Y590160D02*
D03*
Y584451D02*
D03*
X407846Y634251D02*
D03*
Y639960D02*
D03*
X418046Y634151D02*
D03*
Y639860D02*
D03*
X178646Y461051D02*
D03*
Y466760D02*
D03*
X516446Y320660D02*
D03*
Y314951D02*
D03*
X496346Y320860D02*
D03*
Y315151D02*
D03*
X423846Y701660D02*
D03*
Y695951D02*
D03*
X403846Y716260D02*
D03*
Y710551D02*
D03*
X430946Y701660D02*
D03*
Y695951D02*
D03*
X437946Y701660D02*
D03*
Y695951D02*
D03*
X444946Y701660D02*
D03*
Y695951D02*
D03*
X451946Y701660D02*
D03*
Y695951D02*
D03*
D68*
X377346Y711087D02*
D03*
Y721324D02*
D03*
X176646Y493024D02*
D03*
Y482787D02*
D03*
X167646Y493024D02*
D03*
Y482787D02*
D03*
X95646Y531787D02*
D03*
Y542024D02*
D03*
X96036Y482421D02*
D03*
Y492657D02*
D03*
X95646Y436787D02*
D03*
Y447024D02*
D03*
D95*
X275614Y225905D02*
D03*
X271677D02*
D03*
D96*
X188606Y236405D02*
D03*
X183685D02*
D03*
X270685Y220905D02*
D03*
X275606D02*
D03*
D103*
X260764Y497905D02*
D03*
X250528D02*
D03*
X260764Y506405D02*
D03*
X250528D02*
D03*
D109*
X270461Y295890D02*
D03*
X274831Y291521D02*
D03*
X306561Y284592D02*
D03*
X310931Y280122D02*
D03*
D110*
X270321Y304381D02*
D03*
X261970Y296030D02*
D03*
X274970Y283030D02*
D03*
X283321Y291381D02*
D03*
X306422Y293082D02*
D03*
X298070Y284731D02*
D03*
X311070Y271631D02*
D03*
X319422Y279982D02*
D03*
D111*
X343048Y310405D02*
D03*
X286648Y316106D02*
D03*
X292843D02*
D03*
X343048Y260806D02*
D03*
X349243D02*
D03*
Y310405D02*
D03*
X342948Y285206D02*
D03*
X349143D02*
D03*
D112*
X336946Y316311D02*
D03*
Y304500D02*
D03*
X280546Y322011D02*
D03*
Y310200D02*
D03*
X298946Y310200D02*
D03*
Y322011D02*
D03*
X336946Y266711D02*
D03*
Y254900D02*
D03*
X355346D02*
D03*
Y266711D02*
D03*
Y304500D02*
D03*
Y316311D02*
D03*
X336846Y291111D02*
D03*
Y279300D02*
D03*
X355246D02*
D03*
Y291111D02*
D03*
D116*
X213571Y333405D02*
D03*
X216721D02*
D03*
X219220Y371905D02*
D03*
X216071D02*
D03*
D119*
X204720Y367905D02*
D03*
X201571D02*
D03*
X204720Y371406D02*
D03*
X201571D02*
D03*
X214521Y358606D02*
D03*
X211371D02*
D03*
D120*
X451246Y239765D02*
D03*
Y234647D02*
D03*
D228*
X324388Y364063D02*
D03*
X326503Y361948D02*
D03*
X296560Y383291D02*
D03*
X298731Y381120D02*
D03*
X265003Y383748D02*
D03*
X262888Y385863D02*
D03*
D229*
X220259Y355892D02*
D03*
X218032Y358119D02*
D03*
X293659Y376692D02*
D03*
X291432Y378919D02*
D03*
D230*
X293257Y367100D02*
D03*
X292234Y369911D02*
D03*
D231*
X322503Y398963D02*
D03*
X320388Y396848D02*
D03*
X305003Y369763D02*
D03*
X302888Y367648D02*
D03*
X318404Y355963D02*
D03*
X316288Y353848D02*
D03*
X270988Y344748D02*
D03*
X273103Y346863D02*
D03*
D232*
X300841Y384457D02*
D03*
X298250Y385953D02*
D03*
D233*
X163406Y250406D02*
D03*
X170886D02*
D03*
D234*
X305638Y450906D02*
D03*
X169638Y438905D02*
D03*
D235*
X279654Y450906D02*
D03*
X143654Y438905D02*
D03*
D236*
X213978Y714505D02*
D03*
X230513D02*
D03*
D237*
X204114Y358854D02*
D03*
Y360889D02*
D03*
Y362923D02*
D03*
Y364957D02*
D03*
X200177D02*
D03*
Y362923D02*
D03*
Y360889D02*
D03*
Y358854D02*
D03*
X204114Y349354D02*
D03*
Y351389D02*
D03*
Y353423D02*
D03*
Y355457D02*
D03*
X200177D02*
D03*
Y353423D02*
D03*
Y351389D02*
D03*
Y349354D02*
D03*
X207177Y355457D02*
D03*
Y353423D02*
D03*
Y351389D02*
D03*
Y349354D02*
D03*
X211114D02*
D03*
Y351389D02*
D03*
Y353423D02*
D03*
Y355457D02*
D03*
D238*
X195595Y339437D02*
D03*
X197629D02*
D03*
X199663D02*
D03*
X201697D02*
D03*
Y343374D02*
D03*
X199663D02*
D03*
X197629D02*
D03*
X195595D02*
D03*
X211595Y337437D02*
D03*
X213629D02*
D03*
X215663D02*
D03*
X217697D02*
D03*
Y341374D02*
D03*
X215663D02*
D03*
X213629D02*
D03*
X211595D02*
D03*
D239*
X424046Y415235D02*
D03*
Y417204D02*
D03*
X448345Y397519D02*
D03*
X424046Y397519D02*
D03*
X448345Y399487D02*
D03*
X424046D02*
D03*
X448345Y401456D02*
D03*
X424046D02*
D03*
X448345Y403424D02*
D03*
X424046D02*
D03*
X448345Y405393D02*
D03*
X424046D02*
D03*
X448345Y407361D02*
D03*
X424046D02*
D03*
X448345Y409330D02*
D03*
X424046D02*
D03*
X448345Y411298D02*
D03*
X424046D02*
D03*
X448345Y413267D02*
D03*
X424046D02*
D03*
X448345Y415235D02*
D03*
Y417204D02*
D03*
Y419172D02*
D03*
X424046Y419172D02*
D03*
X448345Y421141D02*
D03*
Y423109D02*
D03*
Y425078D02*
D03*
X424046D02*
D03*
X448345Y427046D02*
D03*
X424046D02*
D03*
X448345Y429015D02*
D03*
X424046D02*
D03*
X448345Y430983D02*
D03*
X424046D02*
D03*
X448345Y432952D02*
D03*
X424046D02*
D03*
X448345Y434921D02*
D03*
X424046Y434921D02*
D03*
X448345Y436889D02*
D03*
X424046Y436889D02*
D03*
X448345Y438858D02*
D03*
X424046D02*
D03*
X448345Y440826D02*
D03*
X424046D02*
D03*
X448345Y442795D02*
D03*
X424046D02*
D03*
X448345Y444763D02*
D03*
Y446732D02*
D03*
Y448700D02*
D03*
X424046Y448700D02*
D03*
X448345Y450668D02*
D03*
X424046D02*
D03*
X448345Y452637D02*
D03*
X424046D02*
D03*
X448345Y454605D02*
D03*
X424046D02*
D03*
Y423109D02*
D03*
Y421141D02*
D03*
Y446732D02*
D03*
Y444763D02*
D03*
D240*
X374562Y698705D02*
D03*
X364129D02*
D03*
D241*
X419872Y711768D02*
D03*
Y713737D02*
D03*
Y715705D02*
D03*
Y717674D02*
D03*
Y719642D02*
D03*
X435620Y711768D02*
D03*
Y713737D02*
D03*
Y715705D02*
D03*
Y717674D02*
D03*
Y719642D02*
D03*
D242*
X323119Y417805D02*
D03*
X319772D02*
D03*
D243*
X144846Y251065D02*
D03*
Y245947D02*
D03*
M02*
